<svg width="29" height="28" viewBox="0 0 29 28" fill="none" xmlns="http://www.w3.org/2000/svg">
<path d="M28.3648 13.3449C28.0917 11.7971 27.5889 10.1071 26.9611 8.53688C26.3422 7.03431 25.6329 5.64687 24.8641 4.61148C21.8982 0.765486 19.3544 1.75282 16.314 2.97733C15.3423 3.34562 14.3058 3.75681 13.2125 4.00329L12.8667 4.04859C11.7469 4.092 10.6394 3.96166 9.60556 3.85609C6.35683 3.48984 3.64009 3.15717 1.76927 7.67117C1.29314 8.86963 0.930512 10.3975 0.75408 12.0042C0.551935 13.6832 0.50141 15.4456 0.636196 17.0116C0.79315 18.7468 1.13009 19.9765 1.62574 20.8066C2.11253 21.5691 2.73231 22.0043 3.48509 22.1123C4.16427 22.1954 4.91616 22.0281 5.66716 21.5855C6.94483 20.8673 8.35018 19.5127 9.68991 17.9257C10.6289 16.7698 12.568 15.9994 14.5736 15.7367C16.5793 15.474 18.6514 15.719 19.8564 16.5939C21.5597 17.7823 23.2665 18.7292 24.686 19.0941C25.5213 19.2945 26.2953 19.2964 26.9302 19.0411C27.5952 18.7475 28.121 18.1966 28.3861 17.2668C28.6556 16.3708 28.6645 15.0959 28.3648 13.3449Z" fill="#172994"/>
<path d="M27.985 19.4484C27.9152 17.8782 27.6362 16.1373 27.2177 14.4988C26.7992 12.9286 26.2761 11.4608 25.6483 10.3343C23.2071 6.13565 20.5565 6.78422 17.3829 7.60347C16.3715 7.84242 15.2904 8.1155 14.1744 8.21791H13.8256C12.7096 8.1155 11.6285 7.84242 10.6171 7.60347C7.44347 6.81836 4.79295 6.13565 2.35169 10.3684C1.72394 11.4949 1.16593 12.9627 0.782304 14.5329C0.363802 16.1714 0.0848002 17.9123 0.0150498 19.4826C-0.0547006 21.2235 0.119675 22.4865 0.503303 23.374C0.88693 24.1932 1.44493 24.7053 2.17731 24.9101C2.83994 25.0807 3.6072 25.0125 4.40933 24.6711C5.76946 24.125 7.33884 22.9644 8.87335 21.5648C9.95448 20.5407 11.9772 20.0287 14 20.0287C16.0228 20.0287 18.0455 20.5407 19.1267 21.5648C20.6612 22.9644 22.2306 24.125 23.5907 24.6711C24.3928 24.9783 25.1601 25.0807 25.8227 24.9101C26.5202 24.7053 27.1131 24.2274 27.4967 23.3398C27.8803 22.4865 28.0547 21.2235 27.985 19.4484ZM26.311 22.8619C26.1017 23.3398 25.8227 23.6129 25.474 23.7153C25.0903 23.8177 24.6021 23.7495 24.0441 23.5447C22.8234 23.0668 21.3936 22.0086 19.9985 20.7114C18.6733 19.4143 16.3366 18.7657 14 18.7657C11.6634 18.7657 9.32673 19.4143 7.9666 20.6432C6.53671 21.9403 5.10683 23.0326 3.92107 23.4764C3.36307 23.6812 2.87482 23.7836 2.49119 23.6471C2.14244 23.5447 1.86344 23.2716 1.65418 22.7937C1.37518 22.1451 1.23568 21.0869 1.30543 19.5167C1.37518 18.0489 1.61931 16.3762 2.03781 14.806C2.42144 13.3382 2.90969 11.9728 3.50257 10.9487C5.42071 7.56934 7.65272 8.1155 10.3032 8.79821C11.3844 9.07129 12.5004 9.34437 13.721 9.44678H14.2441C15.4996 9.34437 16.6157 9.07129 17.6968 8.79821C20.3473 8.14964 22.5793 7.56934 24.4974 10.9487C25.0903 11.9728 25.5786 13.3041 25.9622 14.806C26.3458 16.3762 26.6248 18.0147 26.6946 19.5167C26.7643 21.0869 26.6248 22.1451 26.311 22.8619Z" fill="white"/>
<path d="M10.7917 12.792C10.443 12.4848 10.0245 12.2458 9.53621 12.2117C9.50133 11.7679 9.29208 11.3242 8.9782 11.017L8.94333 10.9828C8.5597 10.6073 8.07145 10.4025 7.51344 10.4025C6.95544 10.4025 6.43231 10.6415 6.08356 10.9828C5.76969 11.29 5.52556 11.7338 5.49068 12.2117C5.00243 12.2458 4.58393 12.4506 4.23518 12.7579L4.2003 12.792C3.81667 13.1675 3.60742 13.6454 3.60742 14.1915C3.60742 14.7377 3.85155 15.2497 4.2003 15.5911C4.54905 15.9324 4.96755 16.1373 5.49068 16.1714C5.52556 16.6493 5.73481 17.093 6.08356 17.4003C6.46719 17.7758 6.95544 17.9806 7.51344 17.9806C8.07145 17.9806 8.59458 17.7416 8.94333 17.4003C9.25721 17.0589 9.50133 16.6493 9.53621 16.1714C10.0245 16.1373 10.4778 15.9324 10.7917 15.5911C11.1753 15.2156 11.3846 14.7377 11.3846 14.1915C11.3846 13.6454 11.1405 13.1334 10.7917 12.792ZM9.91983 14.7036C9.78033 14.8401 9.60596 14.9084 9.39671 14.9084H8.90845C8.5597 14.9084 8.24582 15.1815 8.24582 15.557V16.0007C8.24582 16.2055 8.17607 16.3762 8.03657 16.5127C7.89707 16.6493 7.7227 16.7176 7.51344 16.7176C7.30419 16.7176 7.12982 16.6493 6.99032 16.5127C6.85082 16.3762 6.78107 16.2055 6.78107 16.0007V15.5228C6.78107 15.1815 6.50206 14.8743 6.11844 14.8743H5.63018C5.42093 14.8743 5.24656 14.806 5.10706 14.6694C5.00243 14.567 4.8978 14.3964 4.8978 14.1915C4.8978 13.9867 4.96756 13.8161 5.10706 13.6795L5.14193 13.6454C5.28143 13.543 5.45581 13.4747 5.63018 13.4747H6.11844C6.46719 13.4747 6.78107 13.2016 6.78107 12.8261V12.3482C6.78107 12.1434 6.85082 11.9728 6.99032 11.8362C7.12982 11.6997 7.30419 11.6314 7.51344 11.6314C7.7227 11.6314 7.89707 11.6997 8.03657 11.8362L8.07145 11.8703C8.17607 12.0069 8.24582 12.1776 8.24582 12.3482V12.8261C8.24582 13.1675 8.52483 13.4747 8.90845 13.4747H9.39671C9.60596 13.4747 9.78033 13.543 9.91983 13.6795C10.0593 13.8161 10.1291 13.9867 10.1291 14.1915C10.1291 14.3964 10.0593 14.567 9.91983 14.7036Z" fill="white"/>
<path d="M20.0683 12.9627C20.7424 12.9627 21.2889 12.4278 21.2889 11.768C21.2889 11.1081 20.7424 10.5732 20.0683 10.5732C19.3942 10.5732 18.8477 11.1081 18.8477 11.768C18.8477 12.4278 19.3942 12.9627 20.0683 12.9627Z" fill="white"/>
<path d="M20.0683 17.8099C20.7424 17.8099 21.2889 17.275 21.2889 16.6151C21.2889 15.9553 20.7424 15.4204 20.0683 15.4204C19.3942 15.4204 18.8477 15.9553 18.8477 16.6151C18.8477 17.275 19.3942 17.8099 20.0683 17.8099Z" fill="white"/>
<path d="M17.5922 15.3863C18.2664 15.3863 18.8128 14.8514 18.8128 14.1916C18.8128 13.5317 18.2664 12.9968 17.5922 12.9968C16.9181 12.9968 16.3716 13.5317 16.3716 14.1916C16.3716 14.8514 16.9181 15.3863 17.5922 15.3863Z" fill="white"/>
<path d="M22.5444 15.3863C23.2185 15.3863 23.765 14.8514 23.765 14.1916C23.765 13.5317 23.2185 12.9968 22.5444 12.9968C21.8702 12.9968 21.3237 13.5317 21.3237 14.1916C21.3237 14.8514 21.8702 15.3863 22.5444 15.3863Z" fill="white"/>
</svg>
