<svg width="28" height="28" viewBox="0 0 28 28" fill="none" xmlns="http://www.w3.org/2000/svg">
<g clip-path="url(#clip0_722_151)">
<path d="M24.5 9C24.5 12.866 21.366 16 17.5 16C13.634 16 10.5 12.866 10.5 9C10.5 5.13401 13.634 2 17.5 2C21.366 2 24.5 5.13401 24.5 9Z" fill="#172994"/>
<path d="M25.0919 23.2126L21.1204 19.3588C20.8631 19.1091 20.5236 18.9753 20.1636 18.9799C20.0459 18.9817 19.9289 18.9988 19.8157 19.0307L18.0228 17.291C19.4417 15.1447 19.7287 12.4164 18.7895 10.0223L19.4047 9.06366C19.5633 9.10218 19.726 9.12169 19.8892 9.12175C21.0255 9.12175 21.95 8.19728 21.95 7.06097C21.95 5.92471 21.0255 5.00028 19.8892 5.00028C18.7529 5.00028 17.8285 5.92471 17.8285 7.06097C17.8285 7.53122 17.9872 7.96486 18.2533 8.31205L18.0625 8.60931C17.9088 8.37254 17.7425 8.14411 17.5646 7.92499C16.2305 6.28354 14.337 5.25989 12.233 5.04251C10.1289 4.82518 8.06631 5.44015 6.42486 6.7742C4.78337 8.10821 3.75964 10.0017 3.5423 12.1057C3.34804 13.9862 3.8192 15.8334 4.87386 17.3767C4.07439 17.6603 3.50011 18.4238 3.50011 19.3192C3.50011 20.4555 4.42454 21.38 5.5608 21.38C6.51862 21.38 7.32587 20.7231 7.55584 19.8362C8.4838 20.3547 9.51625 20.6838 10.6054 20.7964C10.8827 20.825 11.1591 20.8392 11.434 20.8392C12.9697 20.8392 14.4559 20.3962 15.7411 19.5557L17.5179 21.2618C17.4409 21.4383 17.4026 21.6293 17.4058 21.8219C17.4112 22.1816 17.556 22.5173 17.8132 22.7669L21.7847 26.6207C22.0456 26.8738 22.3835 26.9997 22.7211 26.9997C23.0724 26.9997 23.4232 26.8634 23.6865 26.5921L25.1204 25.1144C25.6368 24.5822 25.624 23.7292 25.0919 23.2126ZM19.8892 6.37528C20.2673 6.37528 20.575 6.68289 20.575 7.06101C20.575 7.43918 20.2673 7.74684 19.8892 7.74684C19.511 7.74684 19.2034 7.43918 19.2034 7.06101C19.2034 6.68289 19.511 6.37528 19.8892 6.37528ZM18.7288 19.892L18.4142 20.2162L16.8331 18.6981C16.9466 18.592 17.0565 18.4834 17.1624 18.372L18.7288 19.892ZM4.91 12.247C5.08961 10.5083 5.93553 8.9436 7.29202 7.8412C8.46979 6.88394 9.9098 6.3748 11.4069 6.3748C11.634 6.3748 11.8627 6.38653 12.0917 6.41021C13.8304 6.58986 15.395 7.43579 16.4975 8.79223C16.7788 9.1381 17.024 9.51179 17.2294 9.90748L14.817 13.6666C14.6071 13.5963 14.3872 13.5605 14.1658 13.5605C13.9252 13.5603 13.6866 13.6024 13.4606 13.6849L12.1083 12.2316C12.2472 11.9496 12.3193 11.6394 12.319 11.325C12.319 10.1888 11.3945 9.26432 10.2582 9.26432C9.12197 9.26432 8.19754 10.1888 8.19754 11.325C8.19754 11.8122 8.36782 12.2601 8.65146 12.6132L6.09336 16.7213C5.16364 15.4226 4.74444 13.8494 4.91 12.247ZM14.1658 14.9354C14.5439 14.9354 14.8516 15.243 14.8516 15.6212C14.8516 15.9993 14.5439 16.307 14.1658 16.307C13.7877 16.307 13.4801 15.9993 13.4801 15.6212C13.48 15.243 13.7877 14.9354 14.1658 14.9354ZM9.57254 11.325C9.57254 10.9469 9.88015 10.6392 10.2583 10.6392C10.6364 10.6392 10.9441 10.9469 10.9441 11.325C10.9441 11.7031 10.6364 12.0108 10.2583 12.0108C9.88011 12.0108 9.57254 11.7031 9.57254 11.325ZM5.56085 20.005C5.18272 20.005 4.87511 19.6974 4.87511 19.3192C4.87511 18.9411 5.18272 18.6335 5.56085 18.6335C5.93897 18.6335 6.24663 18.9411 6.24663 19.3192C6.24663 19.6974 5.93897 20.005 5.56085 20.005ZM11.4315 19.4641C11.2044 19.4641 10.9758 19.4523 10.7467 19.4287C9.35202 19.2846 8.06949 18.7113 7.04752 17.7901L9.81965 13.3383C9.96373 13.3697 10.1108 13.3856 10.2582 13.3857C10.5579 13.3859 10.854 13.3204 11.1255 13.1937L12.3989 14.5621C12.2063 14.8818 12.1047 15.248 12.1051 15.6212C12.1051 16.7575 13.0295 17.6819 14.1658 17.6819C15.3021 17.6819 16.2266 16.7575 16.2266 15.6212C16.2269 15.2301 16.1152 14.8471 15.9047 14.5175L17.8153 11.5403C18.3138 13.8708 17.5192 16.3943 15.5464 17.9976C14.3687 18.9549 12.9287 19.4641 11.4315 19.4641ZM22.7208 25.613L18.7923 21.801L20.1844 20.3664L24.1128 24.1784L22.7208 25.613Z" fill="white"/>
</g>
<defs>
<clipPath id="clip0_722_151">
<rect width="28" height="28" fill="white"/>
</clipPath>
</defs>
</svg>
