<svg width="28" height="28" viewBox="0 0 28 28" fill="none" xmlns="http://www.w3.org/2000/svg">
<path d="M20.2006 10.0412L13.3386 17.1573C12.5954 17.928 12.6065 19.152 13.3636 19.9091L16.0658 22.6113C16.8368 23.3823 18.0834 23.3936 18.8683 22.6367L25.5339 16.2092C26.3393 15.4326 26.3509 14.1464 25.5598 13.3553L22.2273 10.0227C21.6655 9.46092 20.7521 9.46923 20.2006 10.0412Z" fill="#172994"/>
<path d="M18.0988 11.1478L18.6827 10.5779L19.2661 11.1482L18.6822 11.7182L18.0988 11.1478ZM16.9308 10.0071L17.5147 9.43699L18.0983 10.0072L17.5147 10.5773L16.9308 10.0071ZM15.7635 8.86728L16.3474 8.29712L16.931 8.86728L16.3474 9.4374L15.7635 8.86728ZM20.4336 13.4286L21.0175 12.8584L21.6012 13.4286L21.0175 13.9987L20.4336 13.4286ZM19.2661 12.2881L19.8498 11.7178L20.4336 12.2879L19.85 12.8582L19.2661 12.2881ZM14.3801 18.7392C14.304 18.7391 14.2295 18.7185 14.1647 18.6797C14.0998 18.6409 14.0472 18.5853 14.0127 18.5191L13.2671 17.091L11.6467 17.3412C11.5602 17.3552 11.4713 17.3419 11.393 17.3033C11.3147 17.2646 11.2511 17.2026 11.2113 17.1262C11.1716 17.0498 11.1578 16.963 11.1719 16.8784C11.1861 16.7939 11.2274 16.7159 11.29 16.6559L12.4503 15.5225L11.7074 14.0944C11.6678 14.0185 11.6538 13.9324 11.6675 13.8482C11.6811 13.7641 11.7217 13.6864 11.7834 13.6262C11.845 13.566 11.9245 13.5263 12.0106 13.513C12.0967 13.4997 12.1849 13.5133 12.2625 13.552L13.7251 14.2779L14.8852 13.1441C14.9466 13.0829 15.0264 13.0425 15.113 13.0286C15.1996 13.0148 15.2884 13.0283 15.3666 13.0671C15.4449 13.1059 15.5084 13.1681 15.548 13.2445C15.5876 13.321 15.6013 13.4078 15.587 13.4924L15.3245 15.0794L16.7869 15.8076C16.8644 15.8464 16.9274 15.9081 16.9668 15.984C17.0063 16.0599 17.0201 16.1461 17.0063 16.2301C16.9926 16.3141 16.9519 16.3918 16.8903 16.4519C16.8286 16.512 16.749 16.5515 16.663 16.5647L15.0422 16.8156L14.7878 18.3988C14.7741 18.4829 14.7336 18.5605 14.672 18.6207C14.6104 18.6809 14.5309 18.7205 14.4448 18.7339C14.4234 18.7374 14.4017 18.7392 14.3801 18.7392ZM13.4992 16.2421C13.5753 16.2421 13.6499 16.2627 13.7148 16.3016C13.7798 16.3405 13.8324 16.3961 13.867 16.4624L14.1711 17.0457L14.2761 16.4006C14.2898 16.3165 14.3304 16.2387 14.3921 16.1785C14.4538 16.1183 14.5334 16.0788 14.6195 16.0655L15.2798 15.9627L14.6826 15.6656C14.6049 15.627 14.5418 15.5654 14.5022 15.4895C14.4626 15.4137 14.4486 15.3276 14.4621 15.2435L14.5669 14.5964L14.0945 15.0593C14.0328 15.1194 13.9532 15.1589 13.8671 15.1721C13.781 15.1854 13.6928 15.1716 13.6152 15.1329L13.0175 14.8358L13.3222 15.4194C13.3617 15.4952 13.3756 15.5813 13.362 15.6654C13.3483 15.7494 13.3078 15.8271 13.2462 15.8873L12.772 16.3509L13.4345 16.2486C13.4558 16.2446 13.4774 16.2425 13.4992 16.2421Z" fill="white"/>
<path fill-rule="evenodd" clip-rule="evenodd" d="M23.5939 8.06056L23.5938 8.06045L23.3019 8.3455C23.1487 8.49763 22.9569 8.60745 22.7462 8.66381C22.6276 8.69551 22.5054 8.70966 22.3836 8.70624C22.5055 8.70968 22.6278 8.69554 22.7464 8.66382C22.9571 8.60746 23.1489 8.49765 23.3021 8.34552L23.5939 8.06056ZM12.0689 24.4262C11.7837 24.4054 11.5045 24.2885 11.2863 24.0754L10.4105 23.2201L10.4104 23.2202L11.2861 24.0754C11.5043 24.2885 11.7836 24.4054 12.0689 24.4262ZM7.983 24.9966C7.6978 24.9758 7.41858 24.8589 7.20049 24.6459L5.15722 22.6497L5.44905 22.3646C5.93275 21.8923 5.93275 21.1263 5.44905 20.654C5.22799 20.4477 4.94963 20.3345 4.66566 20.3144C4.94956 20.3346 5.22784 20.4477 5.44884 20.654C5.93254 21.1262 5.93254 21.8923 5.44884 22.3646L5.15702 22.6497L7.20028 24.6459C7.41842 24.8589 7.69773 24.9758 7.983 24.9966ZM3.40593 20.9389L1.36278 18.9432C0.879074 18.4709 0.879074 17.7048 1.36278 17.2323L13.9626 4.92448C14.23 4.66335 14.5891 4.54654 14.9385 4.57405C14.589 4.54647 14.2298 4.66328 13.9624 4.92447L1.36257 17.2323C0.878865 17.7048 0.878865 18.4709 1.36257 18.9432L3.40585 20.939L3.40593 20.9389ZM16.5894 5.77958L16.5895 5.7797L18.0485 4.35437C18.3159 4.09323 18.675 3.97642 19.0244 4.00393C18.6749 3.97636 18.3157 4.09316 18.0483 4.35435L16.5894 5.77958ZM22.6945 8.47059C22.5171 8.51804 22.3299 8.51879 22.152 8.47277C21.9743 8.4267 21.8127 8.33564 21.6834 8.20935C21.5542 8.08307 21.462 7.9261 21.4155 7.7546C21.369 7.58313 21.3697 7.40278 21.4177 7.23168C21.4657 7.06056 21.5593 6.90435 21.6897 6.77913L22.1292 6.34985L19.9395 4.21131C19.3783 3.66286 18.47 3.66291 17.9086 4.21129L16.5893 5.50009L15.8536 4.7814C15.2922 4.23299 14.3841 4.23301 13.8227 4.7814L1.22281 17.0892C0.658809 17.6402 0.658784 18.5355 1.22284 19.0863L3.40588 21.2186L3.83548 20.7987C4.24836 20.4153 4.89814 20.4153 5.31072 20.7986C5.71245 21.1926 5.71187 21.8282 5.30907 22.2215L4.87082 22.6497L7.06055 24.789C7.6217 25.337 8.52963 25.3369 9.09082 24.789L10.4103 23.4997L11.1464 24.2185C11.7076 24.7666 12.6155 24.7665 13.1769 24.2185L25.7768 11.9099C26.3408 11.3589 26.3408 10.4637 25.7767 9.9129L25.437 9.58144L23.5938 7.78086L23.1622 8.20243L23.161 8.20356C23.0328 8.33084 22.8719 8.42315 22.6945 8.47059ZM8.95573 22.0794L9.53989 22.6497L8.22724 23.9319C8.20774 23.951 8.18407 23.9667 8.15794 23.9773C8.13181 23.9879 8.10363 23.9934 8.07507 23.9934C8.04651 23.9934 8.01833 23.9879 7.9922 23.9773C7.96607 23.9667 7.94244 23.9511 7.92294 23.932L6.54994 22.5901C7.04323 21.7295 6.89657 20.6435 6.17407 19.9378C5.45087 19.2315 4.34114 19.0913 3.4638 19.5758L2.08557 18.2299C2.06603 18.2108 2.05079 18.1884 2.04048 18.1641C2.03017 18.1398 2.02493 18.114 2.02493 18.0879C2.02493 18.0619 2.03017 18.0361 2.04048 18.0118C2.05079 17.9875 2.06606 17.965 2.0856 17.946L14.686 5.63756C14.7255 5.59888 14.78 5.57634 14.8381 5.57634C14.8961 5.57634 14.9509 5.59907 14.9904 5.63775L15.7194 6.34991L5.30871 16.5198C4.74505 17.0705 4.74507 17.9653 5.30871 18.5161L7.49126 20.6485L7.92294 20.2268C8.32866 19.8303 8.98882 19.8303 9.3946 20.2269C9.79794 20.6208 9.79794 21.2575 9.3946 21.6513L8.95573 22.0794ZM8.07249 24.1934C8.07342 24.1934 8.07435 24.1934 8.07528 24.1934C8.12952 24.1934 8.18323 24.183 8.23332 24.1626C8.28342 24.1423 8.32892 24.1125 8.3672 24.075L9.82636 22.6497L9.24231 22.0795L9.53454 21.7945C10.0182 21.3221 10.0182 20.5562 9.53454 20.0838C9.31637 19.8706 9.03697 19.7536 8.7516 19.7328C9.0369 19.7537 9.31622 19.8706 9.53433 20.0838C10.018 20.5561 10.018 21.3221 9.53433 21.7944L9.2421 22.0795L9.82613 22.6496L8.367 24.075C8.32871 24.1125 8.28321 24.1423 8.23311 24.1626C8.18302 24.1829 8.12931 24.1934 8.07507 24.1934C8.07421 24.1934 8.07335 24.1934 8.07249 24.1934ZM7.49137 20.3688L7.49127 20.3689L5.44848 18.373C4.96513 17.9007 4.96513 17.135 5.44848 16.6628L16.0056 6.3499L15.1301 5.49468C15.0624 5.42836 14.9735 5.3875 14.8789 5.37832C14.9736 5.38746 15.0626 5.42832 15.1303 5.4947L16.0058 6.34992L5.44868 16.6628C4.96534 17.1351 4.96534 17.9007 5.44868 18.373L7.49137 20.3688ZM3.43437 19.8264L3.43447 19.8265C3.82918 19.5708 4.28651 19.4631 4.73215 19.4963C4.28648 19.4631 3.82912 19.5707 3.43437 19.8264ZM12.1291 23.6217C12.2452 23.6306 12.3644 23.5916 12.4533 23.5048L25.0536 11.197L25.0539 11.1951C25.215 11.0376 25.215 10.7822 25.0539 10.625L23.5647 9.17025C23.5647 9.17027 23.5646 9.1703 23.5646 9.17032L25.0537 10.625C25.2148 10.7822 25.2148 11.0376 25.0537 11.1951L25.0534 11.197L12.4531 23.5048C12.3643 23.5916 12.2451 23.6305 12.1291 23.6217ZM22.2184 9.49512C21.7578 9.44978 21.3128 9.25361 20.9659 8.91473C20.2719 8.23671 20.1627 7.1754 20.7046 6.37608L19.2162 4.92453C19.1535 4.86323 19.0726 4.82358 18.9857 4.81077C19.0725 4.82361 19.1533 4.86326 19.216 4.92452L20.7044 6.37606C20.1625 7.17539 20.2717 8.23669 20.9657 8.91471C21.3126 9.25364 21.7578 9.44982 22.2184 9.49512ZM7.52106 19.2571L7.52115 19.2572C7.91596 19.0031 8.37267 18.8965 8.81761 18.9301C8.37265 18.8965 7.9159 19.0031 7.52106 19.2571ZM10.2577 19.3702C10.9798 20.0749 11.1274 21.1596 10.6357 22.0201L12.0093 23.3619C12.0925 23.4433 12.2297 23.4434 12.3133 23.3618L24.8681 11.0984L24.8685 11.0965L24.9139 11.0521C24.9948 10.973 24.9946 10.8467 24.914 10.768L23.5348 9.42085C22.6576 9.90436 21.5485 9.7637 20.8259 9.05776C20.1038 8.35229 19.957 7.26722 20.4496 6.40689L19.0763 5.06759C19.0366 5.02881 18.982 5.00623 18.9242 5.00623C18.8661 5.00628 18.8114 5.02886 18.7717 5.06758L6.17187 17.3758C6.09091 17.4549 6.09114 17.5811 6.17187 17.6598L7.55084 19.0068C8.42795 18.5257 9.5349 18.6664 10.2577 19.3702Z" fill="white"/>
</svg>
