<svg width="28" height="28" viewBox="0 0 28 28" fill="none" xmlns="http://www.w3.org/2000/svg">
<g clip-path="url(#clip0_722_158)">
<g clip-path="url(#clip1_722_158)">
<path d="M16.9707 8.2305L17.7607 2.30576C17.8269 1.80895 18.2525 1.43071 18.7496 1.4946C21.0157 1.78583 23.0018 3.1417 24.1684 4.21387C24.5791 4.59126 24.5259 5.23001 24.0974 5.58705L19.3788 9.51923C19.0736 9.77357 18.6468 9.82311 18.2914 9.64543L17.5147 9.25709C17.1328 9.06613 16.9143 8.65374 16.9707 8.2305Z" fill="#172994"/>
<path d="M9.26957 14.7354L4.52156 18.3662C4.12342 18.6707 3.55506 18.6372 3.24872 18.2405C1.85225 16.4322 1.40664 14.0691 1.33983 12.486C1.31631 11.9288 1.80561 11.5147 2.36103 11.5652L8.47806 12.1213C8.87372 12.1573 9.21057 12.4241 9.3362 12.801L9.6108 13.6248C9.74583 14.0299 9.60875 14.476 9.26957 14.7354Z" fill="#172994"/>
<path d="M16.6735 19.2119L20.3044 23.9599C20.6088 24.3581 20.5754 24.9264 20.1787 25.2328C18.3704 26.6293 16.0073 27.0749 14.4242 27.1417C13.8669 27.1652 13.4529 26.6759 13.5034 26.1205L14.0595 20.0034C14.0955 19.6078 14.3622 19.2709 14.7392 19.1453L15.563 18.8707C15.968 18.7357 16.4142 18.8728 16.6735 19.2119Z" fill="#172994"/>
<path d="M15.3386 13.9136C15.5239 13.5927 15.4139 13.1823 15.093 12.997C14.772 12.8117 14.3616 12.9217 14.1763 13.2426C13.991 13.5635 14.101 13.9739 14.422 14.1592C14.7429 14.3445 15.1533 14.2346 15.3386 13.9136Z" fill="white"/>
<path d="M6.30237 6.5075L5.29079 5.1836C5.22379 5.09575 5.13611 5.02581 5.03556 4.98001C4.93502 4.93421 4.82471 4.91396 4.71445 4.92106C4.60419 4.92816 4.49739 4.96239 4.40355 5.02071C4.30971 5.07903 4.23173 5.15963 4.17654 5.25535L2.25931 8.5761C2.20401 8.67175 2.17319 8.77959 2.1696 8.89002C2.16602 9.00045 2.18977 9.11005 2.23875 9.20909C2.28773 9.30813 2.36043 9.39353 2.45037 9.45771C2.54031 9.52188 2.64471 9.56284 2.75429 9.57695L4.40661 9.79105C3.68557 11.7624 3.54238 13.8986 3.99388 15.9485C4.44537 17.9984 5.47278 19.8768 6.9553 21.3628C8.43781 22.8488 10.3138 23.8806 12.3626 24.3369C14.4115 24.7932 16.5481 24.655 18.5211 23.9385C20.4941 23.2221 22.2215 21.9572 23.5002 20.2927C24.7789 18.6281 25.5558 16.633 25.7395 14.542C25.9231 12.451 25.5059 10.351 24.5369 8.489C23.568 6.62699 22.0875 5.08036 20.2696 4.03097C18.0259 2.72037 15.3895 2.24989 12.831 2.70354C10.2726 3.15718 7.95863 4.50541 6.30237 6.5075ZM19.5985 5.19323C20.5043 5.71598 21.3188 6.38276 22.0102 7.16739L16.9561 11.0454C16.6331 10.7627 16.2579 10.5461 15.8516 10.4078L16.6847 4.08121C17.7092 4.29371 18.693 4.66915 19.5985 5.19323ZM15.3545 3.90122L14.52 10.2318C14.0928 10.2627 13.6755 10.3745 13.2901 10.5613L9.40391 5.49679C11.1582 4.3255 13.2495 3.76474 15.3545 3.90122ZM16.5009 14.5847C16.3018 14.9295 16.005 15.2075 15.6479 15.3836C15.2908 15.5597 14.8895 15.626 14.4948 15.574C14.1 15.522 13.7295 15.3542 13.4302 15.0916C13.1308 14.8291 12.9161 14.4837 12.813 14.0991C12.71 13.7146 12.7233 13.308 12.8513 12.931C12.9792 12.554 13.2161 12.2234 13.532 11.981C13.8479 11.7386 14.2286 11.5954 14.6259 11.5693C15.0232 11.5433 15.4193 11.6356 15.7641 11.8347C16.226 12.1021 16.563 12.5418 16.7011 13.0573C16.8392 13.5729 16.7672 14.1221 16.5009 14.5847ZM4.83553 6.79808L6.27301 8.67958L3.92484 8.37544L4.83553 6.79808ZM7.6978 10.2173C7.82919 10.2344 7.9627 10.2122 8.08149 10.1535C8.20028 10.0948 8.29903 10.0023 8.36528 9.88755C8.43153 9.77281 8.4623 9.64102 8.45372 9.5088C8.44514 9.37658 8.39759 9.24987 8.31707 9.14465L7.13985 7.6038C7.50131 7.14062 7.90358 6.7108 8.34183 6.31949L12.2246 11.3799C11.9421 11.7026 11.7256 12.0776 11.5873 12.4837L5.26352 11.6513C5.38328 11.0761 5.55438 10.5128 5.77478 9.96817L7.6978 10.2173ZM5.08333 12.9818L11.4112 13.8157C11.4421 14.2428 11.5539 14.6602 11.7407 15.0455L6.67557 18.9336C5.50488 17.1785 4.94505 15.0866 5.08266 12.9814L5.08333 12.9818ZM9.91651 21.963C9.00985 21.4408 8.19282 20.7765 7.49655 19.9956L12.559 16.1108C12.8819 16.3935 13.2571 16.6101 13.6634 16.7485L12.832 23.0645C11.8068 22.858 10.8221 22.486 9.91651 21.963ZM14.1626 23.2385L14.9951 16.9244C15.4222 16.8935 15.8396 16.7817 16.225 16.5949L20.1028 21.6471C18.3463 22.8048 16.2625 23.363 14.1626 23.2385ZM21.1688 20.8306L17.2904 15.7763C17.573 15.4536 17.7895 15.0786 17.9277 14.6725L24.244 15.5042C23.8278 17.5677 22.7477 19.4384 21.1688 20.8306ZM24.4181 14.1727L18.1038 13.3406C18.0729 12.9134 17.9611 12.4961 17.7743 12.1107L22.8275 8.23345C23.9847 9.9897 24.5427 12.0732 24.4181 14.1727Z" fill="white"/>
</g>
</g>
<defs>
<clipPath id="clip0_722_158">
<rect width="28" height="28" fill="white"/>
</clipPath>
<clipPath id="clip1_722_158">
<rect width="27.1287" height="24.5406" fill="white" transform="translate(-3 17.4941) rotate(-60)"/>
</clipPath>
</defs>
</svg>
